<svg xmlns="http://www.w3.org/2000/svg" viewBox="0 0 512 512"><path fill="#fff" d="m 114.30195,64.386231 c 0,0.225525 -3.22472,29.541049 -7.16139,65.106179 l -7.20321,64.68739 1.21446,0.96637 1.17264,0.93428 h 14.69961 14.65778 l 0.54435,-2.1906 c 4.22985,-17.29938 11.39124,-33.79333 18.30126,-41.94375 6.95196,-8.24694 17.50558,-12.24159 38.23577,-14.4322 4.27167,-0.4188 13.94584,-0.51547 76.42969,-0.61207 l 71.52973,-0.12885 -1.54947,1.8684 c -42.7587,51.28606 -79.69625,100.38144 -104.23752,138.45931 -21.73533,33.76115 -35.55548,60.69272 -42.84245,83.59746 -4.31361,13.4014 -5.94693,22.80814 -5.94693,33.69673 0,12.04832 2.26152,20.68189 7.58016,28.89665 10.46985,16.23633 30.57194,24.70879 58.54728,24.70879 39.61773,0 62.44194,-15.75303 68.05375,-46.93703 1.84275,-10.21209 1.75899,-18.91008 -0.37694,-45.35842 -0.54434,-6.92619 -1.25629,-15.52758 -1.54948,-19.16779 -0.71194,-8.82691 -0.71194,-42.07259 0,-49.44975 1.4239,-14.9155 3.09905,-25.99737 5.7375,-38.01352 12.48003,-57.08469 42.5912,-108.59613 90.41726,-154.470029 l 1.50765,-1.449677 V 79.430581 65.739308 l -1.17264,-0.869851 -1.17253,-0.869777 H 262.01012 c -117.89018,0 -147.70817,0.09668 -147.70817,0.386551 z"></path></svg>