<svg xmlns="http://www.w3.org/2000/svg" viewBox="0 0 512 512"><path fill="#fff" d="m 242.39866,64.08246 c -9.26349,0.483675 -15.17365,0.870601 -19.49106,1.289702 -30.55694,2.934155 -55.37133,10.156667 -74.61083,21.764211 -4.98801,2.998655 -13.28742,9.415066 -16.59882,12.865077 -7.12581,7.38368 -11.52696,15.2188 -13.87427,24.82729 -0.79638,3.09533 -0.92216,4.90096 -0.96408,10.96269 0,6.25524 0.12584,7.73837 0.92215,10.80152 1.67661,6.28741 4.3174,11.44637 8.21556,16.0894 9.09579,10.7047 22.97006,17.25011 40.23959,18.89448 5.23956,0.51593 16.89218,0.22575 21.25151,-0.4836 10.52096,-1.77337 18.77844,-5.22346 26.53302,-11.05944 8.34134,-6.28741 13.03588,-13.9291 14.20958,-23.02166 1.84431,-14.63846 -6.70665,-28.34188 -25.65278,-41.0457 -5.15562,-3.45001 -6.2874,-4.54628 -5.95209,-5.80381 0.54492,-2.321479 7.12579,-5.771484 14.33535,-7.577112 8.92819,-2.224804 22.21561,-2.48273 33.11388,-0.644852 5.19753,0.838277 8.42508,1.741128 13.62273,3.707932 16.80844,6.384162 29.6767,20.216512 35.83832,38.498462 5.61679,16.60526 6.4551,39.9171 2.05395,56.9416 -3.52093,13.63885 -10.4371,24.66604 -20.24553,32.27548 -6.62279,5.15888 -12.99404,7.99629 -21.58682,9.70517 -5.4492,1.06402 -11.02405,1.25752 -21.545,0.70935 -4.90416,-0.25793 -12.11382,-0.45135 -16.01197,-0.45135 h -7.1258 l -2.8084,1.06402 c -3.22755,1.22521 -7.16763,4.09486 -8.84424,6.44866 -5.19763,7.35144 -1.509,16.12158 8.29941,19.73284 5.32332,1.9668 11.90419,2.35373 24.73054,1.45095 8.6347,-0.6126 12.70066,-0.6126 18.14974,0.0322 11.23348,1.2897 19.95215,4.67528 28.00001,10.89819 10.9401,8.51222 18.35927,21.53846 22.17367,39.01432 1.50901,6.99684 2.22154,12.73607 2.8084,22.34456 1.00601,17.05668 -1.08985,32.30773 -5.99401,44.14103 -9.13773,21.95763 -26.9941,35.56431 -51.8504,39.43349 -9.30541,1.4832 -21.16768,1.67663 -29.84432,0.51592 -12.95211,-1.74112 -25.90423,-7.41593 -27.74854,-12.18797 l -0.50301,-1.25745 2.09577,-1.51545 c 1.17371,-0.8061 4.40126,-2.96641 7.20965,-4.80428 12.53297,-8.15754 20.28745,-17.47578 23.17969,-27.79363 1.21553,-4.41735 1.34131,-12.54264 0.25145,-16.86325 -3.35332,-13.02625 -14.37727,-23.15066 -30.89225,-28.37405 -8.04795,-2.54723 -15.84436,-3.579 -27.03591,-3.579 -9.01203,0 -12.78452,0.38692 -19.78454,1.93462 -14.46103,3.19208 -28.16769,12.09115 -35.16762,22.79592 -5.65872,8.64121 -7.58688,20.08758 -5.32341,31.66288 3.56284,18.47538 17.64675,34.2746 42.12582,47.3331 25.73653,13.7356 58.09586,21.15154 96.1139,22.11889 60.82041,1.51538 109.56904,-10.60802 141.67681,-35.27414 17.7306,-13.60667 27.74855,-28.92222 31.68863,-48.52605 0.8384,-4.03043 0.96408,-5.96506 0.96408,-14.18703 0.0419,-10.05991 -0.25146,-12.86507 -2.09577,-20.95811 -9.22156,-39.72374 -46.98805,-65.51831 -114.80859,-78.38338 -4.61078,-0.87053 -8.71856,-1.57988 -9.09578,-1.57988 -1.76046,0 -0.50301,-0.54817 2.93416,-1.25752 2.01192,-0.41918 7.96411,-1.83788 13.24549,-3.15983 49.20971,-12.3169 78.84439,-29.79275 92.25758,-54.42662 5.23958,-9.60849 7.29351,-17.86271 7.62881,-30.40535 0.29338,-11.8978 -0.62877,-18.83006 -3.89825,-28.4063 -1.96999,-5.86831 -3.8143,-9.57624 -7.71256,-15.67023 C 384.41087,105.06365 375.10545,96.164514 362.86586,88.587326 340.81795,74.948403 313.40471,67.24229 277.81783,64.662811 271.53044,64.21146 247.47052,63.824534 242.39866,64.08246 Z"></path></svg>