<svg xmlns="http://www.w3.org/2000/svg" viewBox="0 0 512 512"><path fill="#fff" d="m 245.53752,64.08246 c -7.12576,0.483675 -11.67204,0.870601 -14.99312,1.289702 -23.50534,2.934155 -42.59333,10.156667 -57.39295,21.764211 -3.83693,2.998655 -10.22109,9.415066 -12.76832,12.865077 -5.48139,7.38368 -8.86689,15.2188 -10.67252,24.82729 -0.6126,3.09533 -0.70935,4.90096 -0.7416,10.96269 0,6.25524 0.0968,7.73837 0.70935,10.80152 1.2897,6.28741 3.32108,11.44637 6.31966,16.0894 6.99676,10.7047 17.66928,17.25011 30.95353,18.89448 4.03043,0.51593 12.99399,0.22575 16.34732,-0.4836 8.09304,-1.77337 14.44495,-5.22346 20.41001,-11.05944 6.41642,-6.28741 10.0276,-13.9291 10.93045,-23.02166 1.4187,-14.63846 -5.15896,-28.34188 -19.73291,-41.0457 -3.96586,-3.45001 -4.83646,-4.54628 -4.57853,-5.80381 0.41917,-2.321479 5.48138,-5.771484 11.02719,-7.577112 6.86784,-2.224804 17.08893,-2.48273 25.47222,-0.644852 3.9981,0.838277 6.48083,1.741128 10.47902,3.707932 12.92957,6.384162 22.82823,20.216512 27.56794,38.498462 4.32061,16.60526 4.96546,39.9171 1.57996,56.9416 -2.70841,13.63885 -8.02854,24.66604 -15.57348,32.27548 -5.09446,5.15888 -9.99542,7.99629 -16.60525,9.70517 -4.19169,1.06402 -8.48004,1.25752 -16.57308,0.70935 -3.77243,-0.25793 -9.31832,-0.45135 -12.3169,-0.45135 h -5.48138 l -2.16031,1.06402 c -2.48273,1.22521 -5.51356,4.09486 -6.80326,6.44866 -3.99818,7.35144 -1.16077,16.12158 6.38416,19.73284 4.09486,1.9668 9.15707,2.35373 19.02349,1.45095 6.64208,-0.6126 9.76974,-0.6126 13.96134,0.0322 8.64114,1.2897 15.34781,4.67528 21.53847,10.89819 8.41546,8.51222 14.12252,21.53846 17.05667,39.01432 1.16078,6.99684 1.70888,12.73607 2.16031,22.34456 0.77385,17.05668 -0.83835,32.30773 -4.61078,44.14103 -7.02902,21.95763 -20.76469,35.56431 -39.88492,39.43349 -7.15801,1.4832 -16.28283,1.67663 -22.95717,0.51592 -9.96316,-1.74112 -19.92633,-7.41593 -21.34503,-12.18797 l -0.38693,-1.25745 1.61213,-1.51545 c 0.90285,-0.8061 3.38558,-2.96641 5.54588,-4.80428 9.64075,-8.15754 15.60573,-17.47578 17.83053,-27.79363 0.93503,-4.41735 1.03178,-12.54264 0.19343,-16.86325 -2.57948,-13.02625 -11.05944,-23.15066 -23.76327,-28.37405 -6.19073,-2.54723 -12.18797,-3.579 -20.79686,-3.579 -6.93233,0 -9.83424,0.38692 -15.21887,1.93462 -11.12387,3.19208 -21.66746,12.09115 -27.05202,22.79592 -4.35286,8.64121 -5.83606,20.08758 -4.09493,31.66288 2.74065,18.47538 13.57442,34.2746 32.40448,47.3331 19.79733,13.7356 44.68912,21.15154 73.93377,22.11889 46.78493,1.51538 84.28387,-10.60802 108.98216,-35.27414 13.63892,-13.60667 21.34504,-28.92222 24.37587,-48.52605 0.64492,-4.03043 0.7416,-5.96506 0.7416,-14.18703 0.0322,-10.05991 -0.19343,-12.86507 -1.61213,-20.95811 -7.09351,-39.72374 -36.14466,-65.51831 -88.3143,-78.38338 -3.54676,-0.87053 -6.70659,-1.57988 -6.99676,-1.57988 -1.3542,0 -0.38693,-0.54817 2.25705,-1.25752 1.54763,-0.41918 6.12624,-1.83788 10.18884,-3.15983 37.85362,-12.3169 60.64953,-29.79275 70.96737,-54.42662 4.03044,-9.60849 5.61039,-17.86271 5.86831,-30.40535 0.22568,-11.8978 -0.48367,-18.83006 -2.99865,-28.4063 -1.51538,-5.86831 -2.93408,-9.57624 -5.93274,-15.67023 C 354.77768,105.06365 347.61967,96.164514 338.2046,88.587326 321.24467,74.948403 300.15756,67.24229 272.78304,64.662811 267.94658,64.21146 249.43895,63.824534 245.53752,64.08246 Z"></path></svg>