<svg xmlns="http://www.w3.org/2000/svg" viewBox="0 0 512 512"><path fill="#fff" d="m 147.00159,64.386231 c 0,0.225525 -2.48055,29.541049 -5.50876,65.106179 l -5.54093,64.68739 0.9342,0.96637 0.90203,0.93428 h 11.30739 11.27522 l 0.41873,-2.1906 c 3.25373,-17.29938 8.76249,-33.79333 14.07789,-41.94375 5.34766,-8.24694 13.46583,-12.24159 29.41213,-14.4322 3.2859,-0.4188 10.72757,-0.51547 58.79207,-0.61207 l 55.02287,-0.12885 -1.1919,1.8684 c -32.89131,51.28606 -61.30481,100.38144 -80.18271,138.45931 -16.71948,33.76115 -27.35037,60.69272 -32.95573,83.59746 -3.31816,13.4014 -4.57456,22.80814 -4.57456,33.69673 0,12.04832 1.73963,20.68189 5.83089,28.89665 8.05373,16.23633 23.51688,24.70879 45.03637,24.70879 30.47518,0 48.03226,-15.75303 52.34904,-46.93703 1.4175,-10.21209 1.35307,-18.91008 -0.28995,-45.35842 -0.41873,-6.92619 -0.96638,-15.52758 -1.19191,-19.16779 -0.54765,-8.82691 -0.54765,-42.07259 0,-49.44975 1.09531,-14.9155 2.38388,-25.99737 4.41346,-38.01352 9.60002,-57.08469 32.76246,-108.59613 69.55174,-154.470029 l 1.15973,-1.449677 V 79.430581 65.739308 l -0.90203,-0.869851 -0.90195,-0.869777 H 260.62326 c -90.68475,0 -113.62167,0.09668 -113.62167,0.386551 z"></path></svg>